<svg width="32" height="32" viewBox="0 0 32 32" fill="none" xmlns="http://www.w3.org/2000/svg">
<path d="M29.7168 9.81292L29.1435 6.56114C29.0156 5.83595 28.324 5.35172 27.5988 5.47959L11.1438 8.38106L29.6944 10.004C29.7194 9.94475 29.7285 9.87915 29.7168 9.81292Z" fill="#5E9FFF"/>
<path d="M25.4652 29.8668C26.1572 30.1187 26.9223 29.7619 27.1741 29.0699L28.3035 25.9671C28.3066 25.9585 28.3094 25.9499 28.3117 25.9412L10.3658 24.3711L25.4652 29.8668Z" fill="#5E9FFF"/>
<path d="M4.83481 7.82609C4.10123 7.76191 3.45452 8.30457 3.39034 9.03814L3.05684 12.8501C3.04359 13.0015 3.13548 13.1407 3.27321 13.205C3.6224 13.368 3.9355 13.6064 4.18796 13.9072C4.64256 14.449 4.86333 15.1492 4.80169 15.8538C4.74005 16.5583 4.40105 17.2095 3.85927 17.6641C3.5584 17.9166 3.20868 18.0969 2.83648 18.1968C2.68968 18.2362 2.57501 18.3574 2.56176 18.5088L2.22826 22.3207C2.16408 23.0543 2.70674 23.701 3.44031 23.7652L28.6772 25.9732C29.4108 26.0373 30.0575 25.4947 30.1217 24.7611L30.4552 20.9492C30.4685 20.7978 30.3766 20.6585 30.2388 20.5942C29.8897 20.4312 29.5766 20.1929 29.3241 19.892C28.8695 19.3502 28.6487 18.65 28.7104 17.9455C28.772 17.2409 29.111 16.5897 29.6528 16.1351C29.9537 15.8827 30.3034 15.7023 30.6756 15.6024C30.8224 15.563 30.937 15.4418 30.9503 15.2904L31.2838 11.4785C31.348 10.7449 30.8053 10.0982 30.0717 10.034L4.83481 7.82609Z" fill="#5E9FFF"/>
<path fill-rule="evenodd" clip-rule="evenodd" d="M28.6182 6.65377C28.5415 6.21865 28.1265 5.92812 27.6914 6.00484L15.2373 8.20084L29.1049 9.4141L28.6182 6.65377ZM30.2054 9.51241L29.6686 6.46854C29.4896 5.45327 28.5215 4.77536 27.5062 4.95438L11.1317 7.84165L4.88126 7.2948C3.85425 7.20495 2.94885 7.96467 2.859 8.99168L2.5255 12.8036C2.49019 13.2073 2.73443 13.5421 3.04756 13.6883C3.32695 13.8187 3.5774 14.0094 3.77937 14.2501C4.14305 14.6835 4.31967 15.2436 4.27035 15.8073C4.22104 16.3709 3.94984 16.8919 3.51642 17.2556C3.27572 17.4576 2.99597 17.6018 2.69818 17.6818C2.36441 17.7714 2.06574 18.0587 2.03042 18.4624L1.69693 22.2743C1.60707 23.3013 2.36679 24.2067 3.3938 24.2965L10.2493 24.8963L25.2828 30.368C26.2515 30.7206 27.3227 30.2211 27.6753 29.2524L28.6742 26.5078C29.6832 26.5728 30.5644 25.8201 30.653 24.8076L30.9865 20.9957C31.0218 20.592 30.7776 20.2572 30.4644 20.111C30.185 19.9806 29.9346 19.7899 29.7326 19.5492C29.3689 19.1158 29.1923 18.5556 29.2416 17.992C29.2909 17.4283 29.5621 16.9074 29.9956 16.5437C30.2363 16.3417 30.516 16.1975 30.8138 16.1175C31.1476 16.0279 31.4462 15.7406 31.4816 15.3369L31.8151 11.525C31.9024 10.5273 31.1878 9.64433 30.2054 9.51241ZM11.0971 8.90936L11.0973 8.91238L30.0344 10.5692L30.0356 10.5663C30.4705 10.61 30.7907 10.9954 30.7525 11.432L30.43 15.1181C30.0235 15.2426 29.6419 15.448 29.3099 15.7266C28.6598 16.2721 28.253 17.0536 28.179 17.899C28.1051 18.7445 28.37 19.5847 28.9155 20.2348C29.1941 20.5668 29.5342 20.8354 29.9129 21.0285L29.5904 24.7146C29.5519 25.1548 29.1638 25.4804 28.7237 25.4419L3.48676 23.2339C3.04662 23.1954 2.72103 22.8074 2.75953 22.3672L3.08203 18.6811C3.4885 18.5567 3.87007 18.3513 4.20206 18.0727C4.85219 17.5272 5.25899 16.7457 5.33296 15.9003C5.40693 15.0548 5.14201 14.2146 4.59648 13.5644C4.31791 13.2324 3.97781 12.9639 3.59912 12.7707L3.92161 9.08464C3.96012 8.6445 4.34814 8.3189 4.78829 8.35741L11.0971 8.90936ZM27.574 26.412L14.3549 25.2555L25.6476 29.3657C26.0628 29.5168 26.5218 29.3027 26.6729 28.8876L27.574 26.412Z" fill="#5E9FFF"/>
<path d="M27.8537 7.81082L26.9991 4.62138C26.8085 3.9101 26.0774 3.48799 25.3661 3.67858L9.22656 8.00316H27.848C27.8678 7.94192 27.8711 7.87578 27.8537 7.81082Z" fill="white"/>
<path d="M25.3661 28.159C26.0774 28.3496 26.8085 27.9275 26.9991 27.2162L27.8537 24.0267C27.8561 24.0179 27.858 24.009 27.8597 24.0002H9.84515L25.3661 28.159Z" fill="white"/>
<path d="M27.8537 7.81082L26.9991 4.62138C26.8085 3.9101 26.0774 3.48799 25.3661 3.67858L9.22656 8.00316H27.848C27.8678 7.94192 27.8711 7.87578 27.8537 7.81082Z" stroke="#103976" stroke-width="1.5"/>
<path d="M25.3661 28.159C26.0774 28.3496 26.8085 27.9275 26.9991 27.2162L27.8537 24.0267C27.8561 24.0179 27.858 24.009 27.8597 24.0002H9.84515L25.3661 28.159Z" stroke="#103976" stroke-width="1.5"/>
<path fill-rule="evenodd" clip-rule="evenodd" d="M3.5625 8C2.45793 8 1.5625 8.89543 1.5625 10V13.03C1.5625 13.2579 1.71885 13.4524 1.92891 13.5408C2.24402 13.6734 2.53372 13.8666 2.78015 14.1131C3.28025 14.6132 3.5612 15.2915 3.5612 15.9987C3.5612 16.7059 3.28025 17.3842 2.78015 17.8843C2.53372 18.1307 2.24402 18.324 1.92891 18.4566C1.71885 18.545 1.5625 18.7395 1.5625 18.9674V22C1.5625 23.1046 2.45793 24 3.5625 24H27.5625C28.6671 24 29.5625 23.1046 29.5625 22V18.9685C29.5625 18.7404 29.4059 18.5458 29.1956 18.4575C28.8797 18.3248 28.5892 18.1313 28.3422 17.8843C27.8422 17.3842 27.5612 16.7059 27.5612 15.9987C27.5612 15.2915 27.8422 14.6132 28.3422 14.1131C28.5892 13.8661 28.8797 13.6726 29.1956 13.5399C29.4059 13.4516 29.5625 13.257 29.5625 13.0289V10C29.5625 8.89543 28.6671 8 27.5625 8H3.5625Z" fill="white"/>
<path d="M2.78015 14.1131L3.31048 13.5827L2.78015 14.1131ZM3.5612 15.9987H2.8112H3.5612ZM2.78015 17.8843L2.24982 17.354L2.24982 17.354L2.78015 17.8843ZM28.3422 17.8843L27.8119 18.4146L27.8119 18.4146L28.3422 17.8843ZM28.3422 14.1131L27.8119 13.5827L27.8119 13.5828L28.3422 14.1131ZM29.1956 13.5399L29.4859 14.2315L29.1956 13.5399ZM29.1956 18.4575L29.4859 17.7659L29.1956 18.4575ZM1.92891 18.4566L2.21982 19.1479L1.92891 18.4566ZM1.92891 13.5408L1.63799 14.2321L1.92891 13.5408ZM2.3125 10C2.3125 9.30964 2.87214 8.75 3.5625 8.75V7.25C2.04372 7.25 0.8125 8.48122 0.8125 10H2.3125ZM2.3125 13.03V10H0.8125V13.03H2.3125ZM1.63799 14.2321C1.86451 14.3274 2.07269 14.4663 2.24982 14.6434L3.31048 13.5827C2.99474 13.267 2.62353 13.0194 2.21982 12.8495L1.63799 14.2321ZM2.24982 14.6434C2.60926 15.0029 2.8112 15.4904 2.8112 15.9987H4.3112C4.3112 15.0925 3.95123 14.2235 3.31048 13.5827L2.24982 14.6434ZM2.8112 15.9987C2.8112 16.507 2.60926 16.9945 2.24982 17.354L3.31048 18.4146C3.95123 17.7739 4.3112 16.9049 4.3112 15.9987H2.8112ZM2.24982 17.354C2.07269 17.5311 1.86451 17.67 1.63799 17.7653L2.21982 19.1479C2.62353 18.978 2.99474 18.7304 3.31048 18.4146L2.24982 17.354ZM2.3125 22V18.9674H0.8125V22H2.3125ZM3.5625 23.25C2.87214 23.25 2.3125 22.6904 2.3125 22H0.8125C0.8125 23.5188 2.04372 24.75 3.5625 24.75V23.25ZM27.5625 23.25H3.5625V24.75H27.5625V23.25ZM28.8125 22C28.8125 22.6904 28.2529 23.25 27.5625 23.25V24.75C29.0813 24.75 30.3125 23.5188 30.3125 22H28.8125ZM28.8125 18.9685V22H30.3125V18.9685H28.8125ZM27.8119 18.4146C28.1284 18.7311 28.5005 18.9791 28.9053 19.149L29.4859 17.7659C29.2588 17.6706 29.0501 17.5315 28.8726 17.354L27.8119 18.4146ZM26.8112 15.9987C26.8112 16.9049 27.1712 17.7739 27.8119 18.4146L28.8726 17.354C28.5131 16.9945 28.3112 16.507 28.3112 15.9987H26.8112ZM27.8119 13.5828C27.1712 14.2235 26.8112 15.0925 26.8112 15.9987H28.3112C28.3112 15.4904 28.5131 15.0029 28.8726 14.6434L27.8119 13.5828ZM28.9053 12.8484C28.5005 13.0183 28.1284 13.2663 27.8119 13.5827L28.8726 14.6434C29.0501 14.4659 29.2588 14.3268 29.4859 14.2315L28.9053 12.8484ZM28.8125 10V13.0289H30.3125V10H28.8125ZM27.5625 8.75C28.2529 8.75 28.8125 9.30964 28.8125 10H30.3125C30.3125 8.48122 29.0813 7.25 27.5625 7.25V8.75ZM3.5625 8.75H27.5625V7.25H3.5625V8.75ZM29.4859 14.2315C29.9154 14.0511 30.3125 13.6185 30.3125 13.0289H28.8125C28.8125 12.9662 28.8349 12.9178 28.8555 12.89C28.8744 12.8646 28.8928 12.8536 28.9053 12.8484L29.4859 14.2315ZM30.3125 18.9685C30.3125 18.3789 29.9154 17.9463 29.4859 17.7659L28.9053 19.149C28.8928 19.1438 28.8744 19.1327 28.8555 19.1074C28.8349 19.0796 28.8125 19.0312 28.8125 18.9685H30.3125ZM1.63799 17.7653C1.20895 17.9459 0.8125 18.3783 0.8125 18.9674H2.3125C2.3125 19.03 2.29009 19.0785 2.26951 19.1062C2.25072 19.1316 2.2323 19.1426 2.21982 19.1479L1.63799 17.7653ZM0.8125 13.03C0.8125 13.6191 1.20895 14.0515 1.63799 14.2321L2.21982 12.8495C2.2323 12.8548 2.25072 12.8658 2.26951 12.8912C2.29009 12.9189 2.3125 12.9674 2.3125 13.03H0.8125Z" fill="#103976"/>
<path d="M6.89453 8V24" stroke="#103976" stroke-width="1.5" stroke-linecap="round" stroke-dasharray="4 4"/>
<path fill-rule="evenodd" clip-rule="evenodd" d="M23.0868 11.2835C23.4091 11.5857 23.4255 12.092 23.1233 12.4143L15.1688 20.8991C14.8666 21.2214 14.3603 21.2377 14.038 20.9356C13.7157 20.6334 13.6993 20.1271 14.0015 19.8048L21.956 11.32C22.2582 10.9977 22.7645 10.9813 23.0868 11.2835ZM16.1774 12.6671C15.7406 12.6671 15.3865 13.0212 15.3865 13.458C15.3865 13.8948 15.7406 14.2489 16.1774 14.2489C16.6142 14.2489 16.9683 13.8948 16.9683 13.458C16.9683 13.0212 16.6142 12.6671 16.1774 12.6671ZM13.7865 13.458C13.7865 12.1376 14.857 11.0671 16.1774 11.0671C17.4979 11.0671 18.5683 12.1376 18.5683 13.458C18.5683 14.7785 17.4979 15.8489 16.1774 15.8489C14.857 15.8489 13.7865 14.7785 13.7865 13.458ZM20.1561 18.7588C20.1561 18.322 20.5102 17.9679 20.947 17.9679C21.3838 17.9679 21.7379 18.322 21.7379 18.7588C21.7379 19.1956 21.3838 19.5497 20.947 19.5497C20.5102 19.5497 20.1561 19.1956 20.1561 18.7588ZM20.947 16.3679C19.6265 16.3679 18.5561 17.4384 18.5561 18.7588C18.5561 20.0793 19.6265 21.1497 20.947 21.1497C22.2674 21.1497 23.3379 20.0793 23.3379 18.7588C23.3379 17.4384 22.2674 16.3679 20.947 16.3679Z" fill="#145CC5"/>
</svg>
