<svg width="40" height="40" viewBox="0 0 40 40" fill="none" xmlns="http://www.w3.org/2000/svg">
<g clip-path="url(#clip0_363_196535)">
<rect width="40" height="40" rx="6.66667" fill="#EBF3FF"/>
<path d="M33.5 21.3557C33.4342 21.3561 33.369 21.3436 33.308 21.319C33.2471 21.2945 33.1917 21.2583 33.145 21.2125C31.815 19.8941 29.025 19.8743 29 19.8743C28.8674 19.8743 28.7402 19.8223 28.6464 19.7297C28.5527 19.6371 28.5 19.5115 28.5 19.3805C28.5 19.2496 28.5527 19.124 28.6464 19.0313C28.7402 18.9387 28.8674 18.8867 29 18.8867C29.13 18.8867 32.225 18.8867 33.855 20.5113C33.9019 20.5572 33.9391 20.6118 33.9644 20.672C33.9898 20.7322 34.0029 20.7967 34.0029 20.8619C34.0029 20.9271 33.9898 20.9916 33.9644 21.0518C33.9391 21.112 33.9019 21.1666 33.855 21.2125C33.8083 21.2583 33.7529 21.2945 33.692 21.319C33.631 21.3436 33.5658 21.3561 33.5 21.3557Z" fill="url(#paint0_radial_363_196535)"/>
<path d="M16.499 21.3557C16.4332 21.3561 16.368 21.3436 16.307 21.319C16.2461 21.2945 16.1907 21.2583 16.144 21.2125C16.0971 21.1666 16.0599 21.112 16.0345 21.0518C16.0092 20.9916 15.9961 20.9271 15.9961 20.8619C15.9961 20.7967 16.0092 20.7322 16.0345 20.672C16.0599 20.6118 16.0971 20.5572 16.144 20.5113C17.774 18.9065 20.869 18.8867 20.999 18.8867C21.1316 18.8867 21.2588 18.9387 21.3525 19.0313C21.4463 19.124 21.499 19.2496 21.499 19.3805C21.499 19.5115 21.4463 19.6371 21.3525 19.7297C21.2588 19.8223 21.1316 19.8743 20.999 19.8743C20.974 19.8743 18.184 19.8743 16.854 21.2125C16.8073 21.2583 16.7519 21.2945 16.6909 21.319C16.63 21.3436 16.5648 21.3561 16.499 21.3557Z" fill="url(#paint1_radial_363_196535)"/>
<path d="M28.5 20.8633H26L25 12.9625C26.9444 12.3042 29.0556 12.3042 31 12.9625C30 16.4191 29.5 17.9005 28.5 20.8633Z" fill="url(#paint2_radial_363_196535)"/>
<path d="M21.5 20.8633H24L25 12.9625C23.0556 12.3042 20.9444 12.3042 19 12.9625C20 16.4191 20.5 17.9005 21.5 20.8633Z" fill="url(#paint3_radial_363_196535)"/>
<path d="M27 18.3945H23L22 10.4938C23.9444 9.8354 26.0556 9.8354 28 10.4938C27.6667 13.1274 27.3333 15.7609 27 18.3945Z" fill="url(#paint4_radial_363_196535)"/>
<path d="M35 31.4801C35 36.9119 30.5 36.665 25 36.665C19.5 36.665 15 36.9119 15 31.4801C15 26.0484 19.5 18.3945 25 18.3945C30.5 18.3945 35 26.0484 35 31.4801Z" fill="url(#paint5_radial_363_196535)"/>
<path d="M29 18.293H21C20.4477 18.293 20 18.7351 20 19.2806C20 19.826 20.4477 20.2682 21 20.2682H29C29.5523 20.2682 30 19.826 30 19.2806C30 18.7351 29.5523 18.293 29 18.293Z" fill="url(#paint6_radial_363_196535)"/>
<g clip-path="url(#clip1_363_196535)">
<path d="M29.5625 28.2992C29.5625 30.7707 27.5338 32.7743 25.0312 32.7743C23.712 32.7743 22.5245 32.2175 21.6964 31.3289C21.4789 31.0957 21.2864 30.8394 21.1225 30.5645C20.7269 29.9 20.5 29.1257 20.5 28.2992C20.5 25.8277 22.5287 23.8242 25.0312 23.8242C25.8683 23.8242 26.6523 24.0483 27.325 24.4392C27.6033 24.6009 27.8626 24.791 28.0988 25.006C28.9986 25.8234 29.5625 26.9964 29.5625 28.2992Z" fill="url(#paint7_radial_363_196535)"/>
<path d="M26.8919 27.234H26.2753C26.2402 27.0981 26.1857 26.9697 26.1153 26.8517H26.8919C27.0962 26.8517 27.2618 26.6882 27.2618 26.4864C27.2618 26.2846 27.0962 26.1211 26.8919 26.1211H24.8249H23.3972C23.1929 26.1211 23.0273 26.2846 23.0273 26.4864C23.0273 26.6882 23.1929 26.8517 23.3972 26.8517H24.8249C25.108 26.8517 25.3551 27.0061 25.485 27.234H23.3972C23.1929 27.234 23.0273 27.3976 23.0273 27.5993C23.0273 27.8011 23.1929 27.9646 23.3972 27.9646H25.485C25.3551 28.1926 25.108 28.3469 24.8249 28.3469H23.3973C23.2497 28.3469 23.1162 28.4336 23.0577 28.5674C22.9992 28.7013 23.0268 28.8566 23.128 28.9628L25.1397 31.0715C25.2125 31.1478 25.3106 31.1863 25.409 31.1863C25.5 31.1863 25.5911 31.1534 25.6626 31.0869C25.8113 30.9485 25.8183 30.7173 25.6782 30.5705L24.254 29.0775H24.8249C25.5226 29.0775 26.1103 28.6036 26.2754 27.9646H26.892C27.0963 27.9646 27.2619 27.8011 27.2619 27.5993C27.2619 27.3976 27.0962 27.234 26.8919 27.234Z" fill="white"/>
</g>
<path d="M35.7701 34.0129H35.7695L27.1179 40.9528C26.4069 41.5232 25.4946 41.7829 24.5893 41.6725L12.9288 40.2534L9.82194 41.4027C8.15293 39.6862 8.8388 34.4988 8.8388 34.4988L9.57871 33.9609C9.51452 32.9723 9.98079 31.9905 10.8462 31.4288C10.9417 31.3663 11.0417 31.3096 11.1471 31.2581L16.1471 28.8163L18.7186 27.5603C18.8587 27.492 19.0015 27.4383 19.1467 27.3989C20.2216 27.1045 21.3885 27.5771 21.9386 28.5907C22.5628 29.7413 22.1694 31.1795 21.0465 31.8523L16.89 34.3434L23.8847 35.5618C24.7264 35.7081 25.5924 35.5311 26.3098 35.0654L33.2664 30.5496C34.1995 29.9433 35.441 30.1539 36.1231 31.0338C36.2995 31.2618 36.4234 31.5146 36.4956 31.7772C36.7143 32.5754 36.4557 33.4628 35.7701 34.0129Z" fill="url(#paint8_radial_363_196535)"/>
<rect x="3.44922" y="34.6016" width="4.88627" height="9.37921" rx="2.44314" transform="rotate(-17.3376 3.44922 34.6016)" fill="#3666B5"/>
<path d="M12.0428 27.9605C16.5235 27.9605 20.1559 24.3282 20.1559 19.8475C20.1559 15.3667 16.5235 11.7344 12.0428 11.7344C7.56204 11.7344 3.92969 15.3667 3.92969 19.8475C3.92969 24.3282 7.56204 27.9605 12.0428 27.9605Z" fill="url(#paint9_radial_363_196535)"/>
<path d="M12.0423 28.8617C9.63431 28.8617 7.37043 27.924 5.66777 26.2213C3.96511 24.5186 3.02734 22.2548 3.02734 19.8469C3.02734 17.4389 3.96511 15.1751 5.66777 13.4724C7.3705 11.7697 9.63431 10.832 12.0423 10.832C14.4502 10.832 16.7141 11.7697 18.4167 13.4724C20.1193 15.1751 21.057 17.4389 21.057 19.8469C21.057 22.2548 20.1193 24.5186 18.4167 26.2213C16.714 27.924 14.4502 28.8617 12.0423 28.8617ZM12.0423 11.8846C9.9155 11.8846 7.91598 12.7128 6.41209 14.2166C4.9082 15.7205 4.07996 17.72 4.07996 19.8468C4.07996 21.9736 4.9082 23.9731 6.41209 25.477C7.91592 26.9809 9.9155 27.809 12.0423 27.809C14.169 27.809 16.1685 26.9808 17.6724 25.477C19.1762 23.9731 20.0044 21.9736 20.0044 19.8468C20.0044 17.72 19.1762 15.7205 17.6724 14.2166C16.1685 12.7128 14.169 11.8846 12.0423 11.8846Z" fill="#F2F7FF"/>
<path d="M10.2569 24.6592C10.192 24.6592 10.126 24.6465 10.0624 24.6199C9.80624 24.5124 9.68573 24.2175 9.79322 23.9614L13.4836 15.1678C13.5912 14.9117 13.8861 14.7913 14.1422 14.8986C14.3984 15.0061 14.5189 15.301 14.4114 15.5571L10.721 24.3506C10.6401 24.5432 10.4534 24.6592 10.2569 24.6592Z" fill="white"/>
<path d="M9.55169 19.2449C8.3752 19.2449 7.41797 18.1692 7.41797 16.8471C7.41797 15.5249 8.37513 14.4492 9.55169 14.4492C10.7281 14.4492 11.6854 15.5249 11.6854 16.8471C11.6854 18.1692 10.7281 19.2449 9.55169 19.2449ZM9.55169 15.4552C8.92995 15.4552 8.42402 16.0796 8.42402 16.8471C8.42402 17.6145 8.92995 18.2389 9.55169 18.2389C10.1734 18.2389 10.6793 17.6145 10.6793 16.8471C10.6793 16.0796 10.1734 15.4552 9.55169 15.4552Z" fill="white"/>
<path d="M14.536 25.2567C13.3596 25.2567 12.4023 24.181 12.4023 22.8589C12.4023 21.5367 13.3595 20.4609 14.536 20.4609C15.7125 20.4609 16.6697 21.5367 16.6697 22.8589C16.6697 24.1811 15.7125 25.2567 14.536 25.2567ZM14.536 21.467C13.9143 21.467 13.4084 22.0914 13.4084 22.8589C13.4084 23.6263 13.9143 24.2507 14.536 24.2507C15.1577 24.2507 15.6636 23.6263 15.6636 22.8589C15.6636 22.0913 15.1578 21.467 14.536 21.467Z" fill="white"/>
</g>
<defs>
<radialGradient id="paint0_radial_363_196535" cx="0" cy="0" r="1" gradientUnits="userSpaceOnUse" gradientTransform="translate(32.6654 19.6109) rotate(147.021) scale(3.64484 9.45889)">
<stop stop-color="#FFE0B9"/>
<stop offset="1" stop-color="#DCAD70"/>
</radialGradient>
<radialGradient id="paint1_radial_363_196535" cx="0" cy="0" r="1" gradientUnits="userSpaceOnUse" gradientTransform="translate(20.1614 19.6109) rotate(147.021) scale(3.64484 9.45889)">
<stop stop-color="#FFE0B9"/>
<stop offset="1" stop-color="#DCAD70"/>
</radialGradient>
<radialGradient id="paint2_radial_363_196535" cx="0" cy="0" r="1" gradientUnits="userSpaceOnUse" gradientTransform="translate(30.2976 14.0708) rotate(115.657) scale(4.68679 4.03792)">
<stop stop-color="#9DC2FF"/>
<stop offset="1" stop-color="#3D7FEB"/>
</radialGradient>
<radialGradient id="paint3_radial_363_196535" cx="0" cy="0" r="1" gradientUnits="userSpaceOnUse" gradientTransform="translate(23.2732 14.2245) rotate(103.865) scale(4.19325 3.62757)">
<stop stop-color="#9DC2FF"/>
<stop offset="1" stop-color="#3D7FEB"/>
</radialGradient>
<radialGradient id="paint4_radial_363_196535" cx="0" cy="0" r="1" gradientUnits="userSpaceOnUse" gradientTransform="translate(27.2976 11.6021) rotate(115.657) scale(4.68679 4.03792)">
<stop stop-color="#9DC2FF"/>
<stop offset="1" stop-color="#3D7FEB"/>
</radialGradient>
<radialGradient id="paint5_radial_363_196535" cx="0" cy="0" r="1" gradientUnits="userSpaceOnUse" gradientTransform="translate(28.0341 22.3668) rotate(126.361) scale(15.9291 9.92171)">
<stop stop-color="#9DC2FF"/>
<stop offset="1" stop-color="#3D7FEB"/>
</radialGradient>
<radialGradient id="paint6_radial_363_196535" cx="0" cy="0" r="1" gradientUnits="userSpaceOnUse" gradientTransform="translate(27.5694 18.8723) rotate(164.057) scale(5.7785 8.67362)">
<stop stop-color="#FFE0B9"/>
<stop offset="1" stop-color="#DCAD70"/>
</radialGradient>
<radialGradient id="paint7_radial_363_196535" cx="0" cy="0" r="1" gradientUnits="userSpaceOnUse" gradientTransform="translate(27.3597 26.4494) rotate(124.997) scale(8.77949 23.443)">
<stop stop-color="#FFE0B9"/>
<stop offset="1" stop-color="#DCAD70"/>
</radialGradient>
<radialGradient id="paint8_radial_363_196535" cx="0" cy="0" r="1" gradientUnits="userSpaceOnUse" gradientTransform="translate(24.833 29.0005) rotate(143.62) scale(21.3315 23.0376)">
<stop stop-color="#FFEED8"/>
<stop offset="1" stop-color="#D59A4F"/>
</radialGradient>
<radialGradient id="paint9_radial_363_196535" cx="0" cy="0" r="1" gradientUnits="userSpaceOnUse" gradientTransform="translate(17.5526 14.8998) rotate(141.6) scale(7.39811 6.6848)">
<stop stop-color="#FFE0B9"/>
<stop offset="1" stop-color="#DCAD70"/>
</radialGradient>
<clipPath id="clip0_363_196535">
<rect width="40" height="40" rx="6.66667" fill="white"/>
</clipPath>
<clipPath id="clip1_363_196535">
<rect width="9.0625" height="8.95004" fill="white" transform="translate(20.5 23.8242)"/>
</clipPath>
</defs>
</svg>
